<mxfile host="app.diagrams.net" modified="2023-05-21T07:52:47.960Z" agent="Mozilla/5.0 (Windows NT 10.0; Win64; x64) AppleWebKit/537.36 (KHTML, like Gecko) Chrome/113.0.0.0 Safari/537.36" etag="ZBcDNCtnsQJFCP2U5XjM" version="21.3.2" type="gitlab">
  <diagram name="Page-1" id="57OJ25VrHFECHeGcw1j7">
    <mxGraphModel dx="786" dy="438" grid="1" gridSize="10" guides="1" tooltips="1" connect="1" arrows="1" fold="1" page="1" pageScale="1" pageWidth="850" pageHeight="1100" math="0" shadow="0">
      <root>
        <mxCell id="0" />
        <mxCell id="1" parent="0" />
        <mxCell id="t9HgP7MLqw2MGiIhVKrv-20" value="&lt;font style=&quot;font-size: 24px;&quot;&gt;Two pointers :&lt;br&gt;&lt;/font&gt;" style="text;html=1;strokeColor=none;fillColor=none;align=left;verticalAlign=top;whiteSpace=wrap;rounded=0;" vertex="1" parent="1">
          <mxGeometry x="40" y="330" width="360" height="40" as="geometry" />
        </mxCell>
        <mxCell id="t9HgP7MLqw2MGiIhVKrv-22" value="A&amp;nbsp; traversal technique for arrays and linked list&lt;br&gt;&lt;br&gt;Depending on the problem is asking, there is a possibility that you can implement a two pointer technique to&amp;nbsp; decrease the time complexity" style="text;html=1;align=left;verticalAlign=top;resizable=0;points=[];autosize=1;strokeColor=none;fillColor=none;" vertex="1" parent="1">
          <mxGeometry x="40" y="380" width="760" height="60" as="geometry" />
        </mxCell>
        <mxCell id="t9HgP7MLqw2MGiIhVKrv-23" value="1" style="whiteSpace=wrap;html=1;aspect=fixed;" vertex="1" parent="1">
          <mxGeometry x="80" y="480" width="40" height="40" as="geometry" />
        </mxCell>
        <mxCell id="t9HgP7MLqw2MGiIhVKrv-24" value="2" style="whiteSpace=wrap;html=1;aspect=fixed;fillColor=#dae8fc;strokeColor=#6c8ebf;" vertex="1" parent="1">
          <mxGeometry x="120" y="480" width="40" height="40" as="geometry" />
        </mxCell>
        <mxCell id="t9HgP7MLqw2MGiIhVKrv-25" value="3" style="whiteSpace=wrap;html=1;aspect=fixed;" vertex="1" parent="1">
          <mxGeometry x="160" y="480" width="40" height="40" as="geometry" />
        </mxCell>
        <mxCell id="t9HgP7MLqw2MGiIhVKrv-26" value="4" style="whiteSpace=wrap;html=1;aspect=fixed;" vertex="1" parent="1">
          <mxGeometry x="200" y="480" width="40" height="40" as="geometry" />
        </mxCell>
        <mxCell id="t9HgP7MLqw2MGiIhVKrv-27" value="5" style="whiteSpace=wrap;html=1;aspect=fixed;" vertex="1" parent="1">
          <mxGeometry x="240" y="480" width="40" height="40" as="geometry" />
        </mxCell>
        <mxCell id="t9HgP7MLqw2MGiIhVKrv-28" value="Target: 7" style="text;html=1;align=center;verticalAlign=middle;resizable=0;points=[];autosize=1;strokeColor=none;fillColor=none;" vertex="1" parent="1">
          <mxGeometry x="300" y="485" width="70" height="30" as="geometry" />
        </mxCell>
        <mxCell id="t9HgP7MLqw2MGiIhVKrv-30" value="2 + 5" style="text;html=1;align=center;verticalAlign=middle;resizable=0;points=[];autosize=1;strokeColor=none;fillColor=none;" vertex="1" parent="1">
          <mxGeometry x="115" y="538" width="50" height="30" as="geometry" />
        </mxCell>
        <mxCell id="t9HgP7MLqw2MGiIhVKrv-32" value="for x in list:&amp;nbsp;&lt;br&gt;&lt;span style=&quot;white-space: pre;&quot;&gt; &lt;/span&gt;for y in range(x+1,list):&lt;br&gt;&lt;span style=&quot;white-space: pre;&quot;&gt; &lt;/span&gt;&lt;span style=&quot;white-space: pre;&quot;&gt; &lt;/span&gt;if x + y == target" style="text;html=1;align=left;verticalAlign=middle;resizable=0;points=[];autosize=1;strokeColor=none;fillColor=none;" vertex="1" parent="1">
          <mxGeometry x="90" y="568" width="170" height="60" as="geometry" />
        </mxCell>
        <mxCell id="t9HgP7MLqw2MGiIhVKrv-33" value="Opposite/ left right&lt;br&gt;" style="text;html=1;align=center;verticalAlign=middle;resizable=0;points=[];autosize=1;strokeColor=none;fillColor=none;" vertex="1" parent="1">
          <mxGeometry x="420" y="548" width="120" height="30" as="geometry" />
        </mxCell>
      </root>
    </mxGraphModel>
  </diagram>
</mxfile>
